<svg width="632" height="400" viewBox="0 0 632 400" xmlns="http://www.w3.org/2000/svg"><style>
    svg {
        font-family: "Iosevka Term Slab", monospace;
        font-size: 22px;
        font-kerning: normal;
        font-weight: bold;
        text-rendering: optimizeLegibility;
        fill: #24292e;
    }

    rect {
        fill: #f6f8fa;
        stroke: #333;
    }

    .combo {
        font-size: 20px;
    }

    .key {
        stroke: #333;
    }

    .pressed {
        fill: #555;
    }

    .pressed-text {
        fill: #faa;
    }

    .disabled {
        fill: #f6f8fa;
        stroke: #ccc;
        border-color: red;
    }

    .deactivated {
        fill: #f000;
        stroke: #f000;
    }

    .sticky {
        fill: #ccc;
    }
</style><rect rx="2" ry="2" x="2" y="2" width="48" height="48" class="deactivated key" /><rect rx="2" ry="2" x="60" y="2" width="48" height="48" class=" key" /><text text-anchor="middle" dominant-baseline="middle" x="84.0" y="28.36363636363636" class="-text">0/1</text><rect rx="2" ry="2" x="118" y="2" width="48" height="48" class=" key" /><text text-anchor="middle" dominant-baseline="middle" x="142.0" y="28.36363636363636" class="-text">0/2</text><rect rx="2" ry="2" x="176" y="2" width="48" height="48" class=" key" /><text text-anchor="middle" dominant-baseline="middle" x="200.0" y="28.36363636363636" class="-text">0/3</text><rect rx="2" ry="2" x="234" y="2" width="48" height="48" class=" key" /><text text-anchor="middle" dominant-baseline="middle" x="258.0" y="28.36363636363636" class="-text">0/4</text><rect rx="2" ry="2" x="292" y="2" width="48" height="48" class="deactivated key" /><rect rx="2" ry="2" x="350" y="2" width="48" height="48" class=" key" /><text text-anchor="middle" dominant-baseline="middle" x="374.0" y="28.36363636363636" class="-text">0/7</text><rect rx="2" ry="2" x="408" y="2" width="48" height="48" class=" key" /><text text-anchor="middle" dominant-baseline="middle" x="432.0" y="28.36363636363636" class="-text">0/8</text><rect rx="2" ry="2" x="466" y="2" width="48" height="48" class=" key" /><text text-anchor="middle" dominant-baseline="middle" x="490.0" y="28.36363636363636" class="-text">0/9</text><rect rx="2" ry="2" x="524" y="2" width="48" height="48" class=" key" /><text text-anchor="middle" dominant-baseline="middle" x="548.0" y="28.36363636363636" class="-text">0/10</text><rect rx="2" ry="2" x="582" y="2" width="48" height="48" class="deactivated key" /><rect rx="2" ry="2" x="2" y="60" width="48" height="48" class=" key" /><text text-anchor="middle" dominant-baseline="middle" x="26.0" y="86.36363636363636" class="-text">1/0</text><rect rx="2" ry="2" x="60" y="60" width="48" height="48" class=" key" /><text text-anchor="middle" dominant-baseline="middle" x="84.0" y="86.36363636363636" class="-text">1/1</text><rect rx="2" ry="2" x="118" y="60" width="48" height="48" class=" key" /><text text-anchor="middle" dominant-baseline="middle" x="142.0" y="86.36363636363636" class="-text">1/2</text><rect rx="2" ry="2" x="176" y="60" width="48" height="48" class=" key" /><text text-anchor="middle" dominant-baseline="middle" x="200.0" y="86.36363636363636" class="-text">1/3</text><rect rx="2" ry="2" x="234" y="60" width="48" height="48" class=" key" /><text text-anchor="middle" dominant-baseline="middle" x="258.0" y="86.36363636363636" class="-text">1/4</text><rect rx="2" ry="2" x="292" y="60" width="48" height="48" class="deactivated key" /><rect rx="2" ry="2" x="350" y="60" width="48" height="48" class=" key" /><text text-anchor="middle" dominant-baseline="middle" x="374.0" y="86.36363636363636" class="-text">1/7</text><rect rx="2" ry="2" x="408" y="60" width="48" height="48" class=" key" /><text text-anchor="middle" dominant-baseline="middle" x="432.0" y="86.36363636363636" class="-text">1/8</text><rect rx="2" ry="2" x="466" y="60" width="48" height="48" class=" key" /><text text-anchor="middle" dominant-baseline="middle" x="490.0" y="86.36363636363636" class="-text">1/9</text><rect rx="2" ry="2" x="524" y="60" width="48" height="48" class=" key" /><text text-anchor="middle" dominant-baseline="middle" x="548.0" y="86.36363636363636" class="-text">1/10</text><rect rx="2" ry="2" x="582" y="60" width="48" height="48" class=" key" /><text text-anchor="middle" dominant-baseline="middle" x="606.0" y="86.36363636363636" class="-text">1/11</text><rect rx="2" ry="2" x="2" y="118" width="48" height="48" class=" key" /><text text-anchor="middle" dominant-baseline="middle" x="26.0" y="144.36363636363637" class="-text">2/0</text><rect rx="2" ry="2" x="60" y="118" width="48" height="48" class=" key" /><text text-anchor="middle" dominant-baseline="middle" x="84.0" y="144.36363636363637" class="-text">2/1</text><rect rx="2" ry="2" x="118" y="118" width="48" height="48" class=" key" /><text text-anchor="middle" dominant-baseline="middle" x="142.0" y="144.36363636363637" class="-text">2/2</text><rect rx="2" ry="2" x="176" y="118" width="48" height="48" class=" key" /><text text-anchor="middle" dominant-baseline="middle" x="200.0" y="144.36363636363637" class="-text">2/3</text><rect rx="2" ry="2" x="234" y="118" width="48" height="48" class=" key" /><text text-anchor="middle" dominant-baseline="middle" x="258.0" y="144.36363636363637" class="-text">2/4</text><rect rx="2" ry="2" x="292" y="118" width="48" height="48" class="deactivated key" /><rect rx="2" ry="2" x="350" y="118" width="48" height="48" class=" key" /><text text-anchor="middle" dominant-baseline="middle" x="374.0" y="144.36363636363637" class="-text">2/7</text><rect rx="2" ry="2" x="408" y="118" width="48" height="48" class=" key" /><text text-anchor="middle" dominant-baseline="middle" x="432.0" y="144.36363636363637" class="-text">2/8</text><rect rx="2" ry="2" x="466" y="118" width="48" height="48" class=" key" /><text text-anchor="middle" dominant-baseline="middle" x="490.0" y="144.36363636363637" class="-text">2/9</text><rect rx="2" ry="2" x="524" y="118" width="48" height="48" class=" key" /><text text-anchor="middle" dominant-baseline="middle" x="548.0" y="144.36363636363637" class="-text">2/10</text><rect rx="2" ry="2" x="582" y="118" width="48" height="48" class=" key" /><text text-anchor="middle" dominant-baseline="middle" x="606.0" y="144.36363636363637" class="-text">2/11</text><rect rx="2" ry="2" x="2" y="176" width="48" height="48" class="disabled key" /><text text-anchor="middle" dominant-baseline="middle" x="26.0" y="202.36363636363637" class="disabled-text">3/0</text><rect rx="2" ry="2" x="60" y="176" width="48" height="48" class="disabled key" /><text text-anchor="middle" dominant-baseline="middle" x="84.0" y="202.36363636363637" class="disabled-text">3/1</text><rect rx="2" ry="2" x="118" y="176" width="48" height="48" class="disabled key" /><text text-anchor="middle" dominant-baseline="middle" x="142.0" y="202.36363636363637" class="disabled-text">3/2</text><rect rx="2" ry="2" x="176" y="176" width="48" height="48" class="disabled key" /><text text-anchor="middle" dominant-baseline="middle" x="200.0" y="202.36363636363637" class="disabled-text">3/3</text><rect rx="2" ry="2" x="234" y="176" width="48" height="48" class="deactivated key" /><rect rx="2" ry="2" x="292" y="176" width="48" height="48" class="deactivated key" /><rect rx="2" ry="2" x="350" y="176" width="48" height="48" class="deactivated key" /><rect rx="2" ry="2" x="408" y="176" width="48" height="48" class="disabled key" /><text text-anchor="middle" dominant-baseline="middle" x="432.0" y="202.36363636363637" class="disabled-text">3/8</text><rect rx="2" ry="2" x="466" y="176" width="48" height="48" class="disabled key" /><text text-anchor="middle" dominant-baseline="middle" x="490.0" y="202.36363636363637" class="disabled-text">3/9</text><rect rx="2" ry="2" x="524" y="176" width="48" height="48" class="disabled key" /><text text-anchor="middle" dominant-baseline="middle" x="548.0" y="202.36363636363637" class="disabled-text">3/10</text><rect rx="2" ry="2" x="582" y="176" width="48" height="48" class="disabled key" /><text text-anchor="middle" dominant-baseline="middle" x="606.0" y="202.36363636363637" class="disabled-text">3/11</text><rect rx="2" ry="2" x="2" y="234" width="48" height="48" class="deactivated key" /><rect rx="2" ry="2" x="60" y="234" width="48" height="48" class="deactivated key" /><rect rx="2" ry="2" x="118" y="234" width="48" height="48" class="deactivated key" /><rect rx="2" ry="2" x="176" y="234" width="48" height="48" class=" key" /><text text-anchor="middle" dominant-baseline="middle" x="200.0" y="260.3636363636364" class="-text">4/2</text><rect rx="2" ry="2" x="234" y="234" width="48" height="48" class=" key" /><text text-anchor="middle" dominant-baseline="middle" x="258.0" y="260.3636363636364" class="-text">4/3</text><rect rx="2" ry="2" x="292" y="234" width="48" height="48" class="deactivated key" /><rect rx="2" ry="2" x="350" y="234" width="48" height="48" class=" key" /><text text-anchor="middle" dominant-baseline="middle" x="374.0" y="260.3636363636364" class="-text">4/8</text><rect rx="2" ry="2" x="408" y="234" width="48" height="48" class=" key" /><text text-anchor="middle" dominant-baseline="middle" x="432.0" y="260.3636363636364" class="-text">4/9</text><rect rx="2" ry="2" x="466" y="234" width="48" height="48" class="deactivated key" /><rect rx="2" ry="2" x="524" y="234" width="48" height="48" class="deactivated key" /><rect rx="2" ry="2" x="582" y="234" width="48" height="48" class="deactivated key" /><rect rx="2" ry="2" x="2" y="292" width="48" height="48" class="deactivated key" /><rect rx="2" ry="2" x="60" y="292" width="48" height="48" class="deactivated key" /><rect rx="2" ry="2" x="118" y="292" width="48" height="106" class="key key" /><text text-anchor="middle" dominant-baseline="middle" x="142.0" y="344.72727272727275" class="key-text">4/4</text><rect rx="2" ry="2" x="176" y="292" width="48" height="106" class="key key" /><text text-anchor="middle" dominant-baseline="middle" x="200.0" y="344.72727272727275" class="key-text">4/5</text><rect rx="2" ry="2" x="234" y="292" width="48" height="48" class=" key" /><text text-anchor="middle" dominant-baseline="middle" x="258.0" y="318.3636363636364" class="-text">4/1</text><rect rx="2" ry="2" x="292" y="292" width="48" height="48" class="deactivated key" /><rect rx="2" ry="2" x="350" y="292" width="48" height="48" class=" key" /><text text-anchor="middle" dominant-baseline="middle" x="374.0" y="318.3636363636364" class="-text">4/10</text><rect rx="2" ry="2" x="408" y="292" width="48" height="106" class="key key" /><text text-anchor="middle" dominant-baseline="middle" x="432.0" y="344.72727272727275" class="key-text">4/6</text><rect rx="2" ry="2" x="466" y="292" width="48" height="106" class="key key" /><text text-anchor="middle" dominant-baseline="middle" x="490.0" y="344.72727272727275" class="key-text">4/7</text><rect rx="2" ry="2" x="524" y="292" width="48" height="48" class="deactivated key" /><rect rx="2" ry="2" x="582" y="292" width="48" height="48" class="deactivated key" /><rect rx="2" ry="2" x="2" y="350" width="48" height="48" class="deactivated key" /><rect rx="2" ry="2" x="60" y="350" width="48" height="48" class="deactivated key" /><rect rx="2" ry="2" x="118" y="350" width="48" height="48" class="deactivated key" /><rect rx="2" ry="2" x="176" y="350" width="48" height="48" class="deactivated key" /><rect rx="2" ry="2" x="234" y="350" width="48" height="48" class=" key" /><text text-anchor="middle" dominant-baseline="middle" x="258.0" y="376.3636363636364" class="-text">4/0</text><rect rx="2" ry="2" x="292" y="350" width="48" height="48" class="deactivated key" /><rect rx="2" ry="2" x="350" y="350" width="48" height="48" class=" key" /><text text-anchor="middle" dominant-baseline="middle" x="374.0" y="376.3636363636364" class="-text">4/11</text><rect rx="2" ry="2" x="408" y="350" width="48" height="48" class="deactivated key" /><rect rx="2" ry="2" x="466" y="350" width="48" height="48" class="deactivated key" /><rect rx="2" ry="2" x="524" y="350" width="48" height="48" class="deactivated key" /><rect rx="2" ry="2" x="582" y="350" width="48" height="48" class="deactivated key" /></svg>