<svg width="632" height="342" viewBox="0 0 632 342" xmlns="http://www.w3.org/2000/svg"><style>
    svg {
        font-family: monospace;
        font-size: 16px;
        font-kerning: normal;
        text-rendering: optimizeLegibility;
        fill: #24292e;
    }

    rect {
        fill: #f6f8fa;
        stroke: #333;
    }

    .key {
        stroke: #333;
    }

    .pressed {
        fill: #555;
    }

    .pressed-text {
        fill: #faa;
    }

    .disabled {
        fill: #888;
        stroke: #f0009;
    }

    .deactivated {
        fill: #f000;
        stroke: #f000;
    }

    .sticky {
        fill: #ccc;
    }
</style><rect rx="2" ry="2" x="2" y="2" width="48" height="48" class="deactivated key" /><rect rx="2" ry="2" x="60" y="2" width="48" height="48" class=" key" /><text text-anchor="middle" dominant-baseline="middle" x="84.0" y="28.36363636363636" class="-text">[</text><rect rx="2" ry="2" x="118" y="2" width="48" height="48" class=" key" /><text text-anchor="middle" dominant-baseline="middle" x="142.0" y="28.36363636363636" class="-text">{</text><rect rx="2" ry="2" x="176" y="2" width="48" height="48" class=" key" /><text text-anchor="middle" dominant-baseline="middle" x="200.0" y="28.36363636363636" class="-text">(</text><rect rx="2" ry="2" x="234" y="2" width="48" height="48" class=" key" /><text text-anchor="middle" dominant-baseline="middle" x="258.0" y="28.36363636363636" class="-text">~</text><rect rx="2" ry="2" x="292" y="2" width="48" height="48" class="deactivated key" /><rect rx="2" ry="2" x="350" y="2" width="48" height="48" class=" key" /><text text-anchor="middle" dominant-baseline="middle" x="374.0" y="28.36363636363636" class="-text">^</text><rect rx="2" ry="2" x="408" y="2" width="48" height="48" class=" key" /><text text-anchor="middle" dominant-baseline="middle" x="432.0" y="28.36363636363636" class="-text">)</text><rect rx="2" ry="2" x="466" y="2" width="48" height="48" class=" key" /><text text-anchor="middle" dominant-baseline="middle" x="490.0" y="28.36363636363636" class="-text">}</text><rect rx="2" ry="2" x="524" y="2" width="48" height="48" class=" key" /><text text-anchor="middle" dominant-baseline="middle" x="548.0" y="28.36363636363636" class="-text">]</text><rect rx="2" ry="2" x="582" y="2" width="48" height="48" class="deactivated key" /><rect rx="2" ry="2" x="2" y="60" width="48" height="48" class=" key" /><text text-anchor="middle" dominant-baseline="middle" x="26.0" y="86.36363636363636" class="-text">-</text><rect rx="2" ry="2" x="60" y="60" width="48" height="48" class=" key" /><text text-anchor="middle" dominant-baseline="middle" x="84.0" y="86.36363636363636" class="-text">*</text><rect rx="2" ry="2" x="118" y="60" width="48" height="48" class=" key" /><text text-anchor="middle" dominant-baseline="middle" x="142.0" y="86.36363636363636" class="-text">=</text><rect rx="2" ry="2" x="176" y="60" width="48" height="48" class=" key" /><text text-anchor="middle" dominant-baseline="middle" x="200.0" y="86.36363636363636" class="-text">_</text><rect rx="2" ry="2" x="234" y="60" width="48" height="48" class=" key" /><text text-anchor="middle" dominant-baseline="middle" x="258.0" y="86.36363636363636" class="-text">$</text><rect rx="2" ry="2" x="292" y="60" width="48" height="48" class="deactivated key" /><rect rx="2" ry="2" x="350" y="60" width="48" height="48" class=" key" /><text text-anchor="middle" dominant-baseline="middle" x="374.0" y="86.36363636363636" class="-text">#</text><rect rx="2" ry="2" x="408" y="60" width="48" height="48" class="sticky key" /><text text-anchor="middle" dominant-baseline="middle" x="432.0" y="86.36363636363636" class="sticky-text">MOD</text><rect rx="2" ry="2" x="466" y="60" width="48" height="48" class="sticky key" /><text text-anchor="middle" dominant-baseline="middle" x="490.0" y="86.36363636363636" class="sticky-text">ALT</text><rect rx="2" ry="2" x="524" y="60" width="48" height="48" class="sticky key" /><text text-anchor="middle" dominant-baseline="middle" x="548.0" y="86.36363636363636" class="sticky-text">CTRL</text><rect rx="2" ry="2" x="582" y="60" width="48" height="48" class="sticky key" /><text text-anchor="middle" dominant-baseline="middle" x="606.0" y="86.36363636363636" class="sticky-text">SHFT</text><rect rx="2" ry="2" x="2" y="118" width="48" height="48" class=" key" /><text text-anchor="middle" dominant-baseline="middle" x="26.0" y="144.36363636363637" class="-text">+</text><rect rx="2" ry="2" x="60" y="118" width="48" height="48" class=" key" /><text text-anchor="middle" dominant-baseline="middle" x="84.0" y="144.36363636363637" class="-text">|</text><rect rx="2" ry="2" x="118" y="118" width="48" height="48" class=" key" /><text text-anchor="middle" dominant-baseline="middle" x="142.0" y="144.36363636363637" class="-text">@</text><rect rx="2" ry="2" x="176" y="118" width="48" height="48" class=" key" /><text text-anchor="middle" dominant-baseline="middle" x="200.0" y="144.36363636363637" class="-text">\</text><rect rx="2" ry="2" x="234" y="118" width="48" height="48" class=" key" /><text text-anchor="middle" dominant-baseline="middle" x="258.0" y="144.36363636363637" class="-text">%</text><rect rx="2" ry="2" x="292" y="118" width="48" height="48" class="deactivated key" /><rect rx="2" ry="2" x="350" y="118" width="48" height="48" class=" key" /><text text-anchor="middle" dominant-baseline="middle" x="374.0" y="144.36363636363637" class="-text">`</text><rect rx="2" ry="2" x="408" y="118" width="48" height="48" class=" key" /><text text-anchor="middle" dominant-baseline="middle" x="432.0" y="144.36363636363637" class="-text">&amp;</text><rect rx="2" ry="2" x="466" y="118" width="48" height="48" class=" key" /><text text-anchor="middle" dominant-baseline="middle" x="490.0" y="144.36363636363637" class="-text">'</text><rect rx="2" ry="2" x="524" y="118" width="48" height="48" class=" key" /><text text-anchor="middle" dominant-baseline="middle" x="548.0" y="144.36363636363637" class="-text">"</text><rect rx="2" ry="2" x="582" y="118" width="48" height="48" class=" key" /><text text-anchor="middle" dominant-baseline="middle" x="606.0" y="144.36363636363637" class="-text">!</text><rect rx="2" ry="2" x="2" y="176" width="48" height="48" class="deactivated key" /><rect rx="2" ry="2" x="60" y="176" width="48" height="48" class="deactivated key" /><rect rx="2" ry="2" x="118" y="176" width="48" height="48" class="deactivated key" /><rect rx="2" ry="2" x="176" y="176" width="48" height="48" class="disabled key" /><rect rx="2" ry="2" x="234" y="176" width="48" height="48" class="disabled key" /><rect rx="2" ry="2" x="292" y="176" width="48" height="48" class="deactivated key" /><rect rx="2" ry="2" x="350" y="176" width="48" height="48" class="disabled key" /><rect rx="2" ry="2" x="408" y="176" width="48" height="48" class="disabled key" /><rect rx="2" ry="2" x="466" y="176" width="48" height="48" class="deactivated key" /><rect rx="2" ry="2" x="524" y="176" width="48" height="48" class="deactivated key" /><rect rx="2" ry="2" x="582" y="176" width="48" height="48" class="deactivated key" /><rect rx="2" ry="2" x="2" y="234" width="48" height="48" class="deactivated key" /><rect rx="2" ry="2" x="60" y="234" width="48" height="48" class="deactivated key" /><rect rx="2" ry="2" x="118" y="234" width="48" height="106" class="key key" /><text text-anchor="middle" dominant-baseline="middle" x="142.0" y="286.72727272727275" class="key-text">NAV</text><rect rx="2" ry="2" x="176" y="234" width="48" height="106" class="key key" /><text text-anchor="middle" dominant-baseline="middle" x="200.0" y="286.72727272727275" class="key-text">BSPC</text><rect rx="2" ry="2" x="234" y="234" width="48" height="48" class="disabled key" /><rect rx="2" ry="2" x="292" y="234" width="48" height="48" class="deactivated key" /><rect rx="2" ry="2" x="350" y="234" width="48" height="48" class="disabled key" /><rect rx="2" ry="2" x="408" y="234" width="48" height="106" class="disabled key" /><rect rx="2" ry="2" x="466" y="234" width="48" height="106" class="pressed key" /><text text-anchor="middle" dominant-baseline="middle" x="490.0" y="286.72727272727275" class="pressed-text">SYM</text><rect rx="2" ry="2" x="524" y="234" width="48" height="48" class="deactivated key" /><rect rx="2" ry="2" x="582" y="234" width="48" height="48" class="deactivated key" /><rect rx="2" ry="2" x="2" y="292" width="48" height="48" class="deactivated key" /><rect rx="2" ry="2" x="60" y="292" width="48" height="48" class="deactivated key" /><rect rx="2" ry="2" x="118" y="292" width="48" height="48" class="deactivated key" /><rect rx="2" ry="2" x="176" y="292" width="48" height="48" class="deactivated key" /><rect rx="2" ry="2" x="234" y="292" width="48" height="48" class="disabled key" /><rect rx="2" ry="2" x="292" y="292" width="48" height="48" class="deactivated key" /><rect rx="2" ry="2" x="350" y="292" width="48" height="48" class="disabled key" /><rect rx="2" ry="2" x="408" y="292" width="48" height="48" class="deactivated key" /><rect rx="2" ry="2" x="466" y="292" width="48" height="48" class="deactivated key" /><rect rx="2" ry="2" x="524" y="292" width="48" height="48" class="deactivated key" /><rect rx="2" ry="2" x="582" y="292" width="48" height="48" class="deactivated key" /></svg>