<svg width="632" height="342" viewBox="0 0 632 342" xmlns="http://www.w3.org/2000/svg"><style>
    svg {
        font-family: "Iosevka Term Slab", monospace;
        font-size: 22px;
        font-kerning: normal;
        font-weight: bold;
        text-rendering: optimizeLegibility;
        fill: #24292e;
    }

    rect {
        fill: #f6f8fa;
        stroke: #333;
    }

    .combo {
        font-size: 20px;
    }

    .key {
        stroke: #333;
    }

    .pressed {
        fill: #555;
    }

    .pressed-text {
        fill: #faa;
    }

    .disabled {
        fill: #f6f8fa;
        stroke: #ccc;
        border-color: red;
    }

    .deactivated {
        fill: #f000;
        stroke: #f000;
    }

    .sticky {
        fill: #ccc;
    }
</style><rect rx="2" ry="2" x="2" y="2" width="48" height="48" class="deactivated key" /><rect rx="2" ry="2" x="60" y="2" width="48" height="48" class=" key" /><text text-anchor="middle" dominant-baseline="middle" x="84.0" y="28.36363636363636" class="-text">5</text><rect rx="2" ry="2" x="118" y="2" width="48" height="48" class=" key" /><text text-anchor="middle" dominant-baseline="middle" x="142.0" y="28.36363636363636" class="-text">3</text><rect rx="2" ry="2" x="176" y="2" width="48" height="48" class=" key" /><text text-anchor="middle" dominant-baseline="middle" x="200.0" y="28.36363636363636" class="-text">1</text><rect rx="2" ry="2" x="234" y="2" width="48" height="48" class=" key" /><text text-anchor="middle" dominant-baseline="middle" x="258.0" y="28.36363636363636" class="-text">9</text><rect rx="2" ry="2" x="292" y="2" width="48" height="48" class="deactivated key" /><rect rx="2" ry="2" x="350" y="2" width="48" height="48" class=" key" /><text text-anchor="middle" dominant-baseline="middle" x="374.0" y="28.36363636363636" class="-text">8</text><rect rx="2" ry="2" x="408" y="2" width="48" height="48" class=" key" /><text text-anchor="middle" dominant-baseline="middle" x="432.0" y="28.36363636363636" class="-text">0</text><rect rx="2" ry="2" x="466" y="2" width="48" height="48" class=" key" /><text text-anchor="middle" dominant-baseline="middle" x="490.0" y="28.36363636363636" class="-text">2</text><rect rx="2" ry="2" x="524" y="2" width="48" height="48" class=" key" /><text text-anchor="middle" dominant-baseline="middle" x="548.0" y="28.36363636363636" class="-text">4</text><rect rx="2" ry="2" x="582" y="2" width="48" height="48" class="deactivated key" /><rect rx="2" ry="2" x="2" y="60" width="48" height="48" class="sticky key" /><text text-anchor="middle" dominant-baseline="middle" x="26.0" y="86.36363636363636" class="sticky-text">SHFT</text><rect rx="2" ry="2" x="60" y="60" width="48" height="48" class="sticky key" /><text text-anchor="middle" dominant-baseline="middle" x="84.0" y="86.36363636363636" class="sticky-text">CTRL</text><rect rx="2" ry="2" x="118" y="60" width="48" height="48" class="sticky key" /><text text-anchor="middle" dominant-baseline="middle" x="142.0" y="86.36363636363636" class="sticky-text">ALT</text><rect rx="2" ry="2" x="176" y="60" width="48" height="48" class="sticky key" /><text text-anchor="middle" dominant-baseline="middle" x="200.0" y="86.36363636363636" class="sticky-text">MOD</text><rect rx="2" ry="2" x="234" y="60" width="48" height="48" class=" key" /><text text-anchor="middle" dominant-baseline="middle" x="258.0" y="86.36363636363636" class="-text">7</text><rect rx="2" ry="2" x="292" y="60" width="48" height="48" class="deactivated key" /><rect rx="2" ry="2" x="350" y="60" width="48" height="48" class=" key" /><text text-anchor="middle" dominant-baseline="middle" x="374.0" y="86.36363636363636" class="-text">6</text><rect rx="2" ry="2" x="408" y="60" width="48" height="48" class="sticky key" /><text text-anchor="middle" dominant-baseline="middle" x="432.0" y="86.36363636363636" class="sticky-text">MOD</text><rect rx="2" ry="2" x="466" y="60" width="48" height="48" class="sticky key" /><text text-anchor="middle" dominant-baseline="middle" x="490.0" y="86.36363636363636" class="sticky-text">ALT</text><rect rx="2" ry="2" x="524" y="60" width="48" height="48" class="sticky key" /><text text-anchor="middle" dominant-baseline="middle" x="548.0" y="86.36363636363636" class="sticky-text">CTRL</text><rect rx="2" ry="2" x="582" y="60" width="48" height="48" class="sticky key" /><text text-anchor="middle" dominant-baseline="middle" x="606.0" y="86.36363636363636" class="sticky-text">SHFT</text><rect rx="2" ry="2" x="2" y="118" width="48" height="48" class=" key" /><text text-anchor="middle" dominant-baseline="middle" x="26.0" y="144.36363636363637" class="-text">F7</text><rect rx="2" ry="2" x="60" y="118" width="48" height="48" class=" key" /><text text-anchor="middle" dominant-baseline="middle" x="84.0" y="144.36363636363637" class="-text">F5</text><rect rx="2" ry="2" x="118" y="118" width="48" height="48" class=" key" /><text text-anchor="middle" dominant-baseline="middle" x="142.0" y="144.36363636363637" class="-text">F3</text><rect rx="2" ry="2" x="176" y="118" width="48" height="48" class=" key" /><text text-anchor="middle" dominant-baseline="middle" x="200.0" y="144.36363636363637" class="-text">F1</text><rect rx="2" ry="2" x="234" y="118" width="48" height="48" class=" key" /><text text-anchor="middle" dominant-baseline="middle" x="258.0" y="144.36363636363637" class="-text">F9</text><rect rx="2" ry="2" x="292" y="118" width="48" height="48" class="deactivated key" /><rect rx="2" ry="2" x="350" y="118" width="48" height="48" class=" key" /><text text-anchor="middle" dominant-baseline="middle" x="374.0" y="144.36363636363637" class="-text">F8</text><rect rx="2" ry="2" x="408" y="118" width="48" height="48" class=" key" /><text text-anchor="middle" dominant-baseline="middle" x="432.0" y="144.36363636363637" class="-text">F10</text><rect rx="2" ry="2" x="466" y="118" width="48" height="48" class=" key" /><text text-anchor="middle" dominant-baseline="middle" x="490.0" y="144.36363636363637" class="-text">F2</text><rect rx="2" ry="2" x="524" y="118" width="48" height="48" class=" key" /><text text-anchor="middle" dominant-baseline="middle" x="548.0" y="144.36363636363637" class="-text">F4</text><rect rx="2" ry="2" x="582" y="118" width="48" height="48" class=" key" /><text text-anchor="middle" dominant-baseline="middle" x="606.0" y="144.36363636363637" class="-text">F6</text><rect rx="2" ry="2" x="2" y="176" width="48" height="48" class="deactivated key" /><rect rx="2" ry="2" x="60" y="176" width="48" height="48" class="deactivated key" /><rect rx="2" ry="2" x="118" y="176" width="48" height="48" class="deactivated key" /><rect rx="2" ry="2" x="176" y="176" width="48" height="48" class="disabled key" /><rect rx="2" ry="2" x="234" y="176" width="48" height="48" class="disabled key" /><rect rx="2" ry="2" x="292" y="176" width="48" height="48" class="deactivated key" /><rect rx="2" ry="2" x="350" y="176" width="48" height="48" class="disabled key" /><rect rx="2" ry="2" x="408" y="176" width="48" height="48" class="disabled key" /><rect rx="2" ry="2" x="466" y="176" width="48" height="48" class="deactivated key" /><rect rx="2" ry="2" x="524" y="176" width="48" height="48" class="deactivated key" /><rect rx="2" ry="2" x="582" y="176" width="48" height="48" class="deactivated key" /><rect rx="2" ry="2" x="2" y="234" width="48" height="48" class="deactivated key" /><rect rx="2" ry="2" x="60" y="234" width="48" height="48" class="deactivated key" /><rect rx="2" ry="2" x="118" y="234" width="48" height="106" class="pressed key" /><text text-anchor="middle" dominant-baseline="middle" x="142.0" y="286.72727272727275" class="pressed-text">NAV</text><rect rx="2" ry="2" x="176" y="234" width="48" height="106" class="disabled key" /><rect rx="2" ry="2" x="234" y="234" width="48" height="48" class="disabled key" /><rect rx="2" ry="2" x="292" y="234" width="48" height="48" class="deactivated key" /><rect rx="2" ry="2" x="350" y="234" width="48" height="48" class="disabled key" /><rect rx="2" ry="2" x="408" y="234" width="48" height="106" class="disabled key" /><rect rx="2" ry="2" x="466" y="234" width="48" height="106" class="pressed key" /><text text-anchor="middle" dominant-baseline="middle" x="490.0" y="286.72727272727275" class="pressed-text">SYM</text><rect rx="2" ry="2" x="524" y="234" width="48" height="48" class="deactivated key" /><rect rx="2" ry="2" x="582" y="234" width="48" height="48" class="deactivated key" /><rect rx="2" ry="2" x="2" y="292" width="48" height="48" class="deactivated key" /><rect rx="2" ry="2" x="60" y="292" width="48" height="48" class="deactivated key" /><rect rx="2" ry="2" x="118" y="292" width="48" height="48" class="deactivated key" /><rect rx="2" ry="2" x="176" y="292" width="48" height="48" class="deactivated key" /><rect rx="2" ry="2" x="234" y="292" width="48" height="48" class="disabled key" /><rect rx="2" ry="2" x="292" y="292" width="48" height="48" class="deactivated key" /><rect rx="2" ry="2" x="350" y="292" width="48" height="48" class="disabled key" /><rect rx="2" ry="2" x="408" y="292" width="48" height="48" class="deactivated key" /><rect rx="2" ry="2" x="466" y="292" width="48" height="48" class="deactivated key" /><rect rx="2" ry="2" x="524" y="292" width="48" height="48" class="deactivated key" /><rect rx="2" ry="2" x="582" y="292" width="48" height="48" class="deactivated key" /><rect rx="4" ry="4" x="154.2" y="153.2" width="33.599999999999994" height="19.200000000000003" class="combo key" /><text text-anchor="middle" dominant-baseline="middle" x="171.0" y="164.79999999999998" class="combo">F11</text><rect rx="4" ry="4" x="444.2" y="153.2" width="33.599999999999994" height="19.200000000000003" class="combo key" /><text text-anchor="middle" dominant-baseline="middle" x="461.0" y="164.79999999999998" class="combo">F12</text></svg>