<svg width="632" height="342" viewBox="0 0 632 342" xmlns="http://www.w3.org/2000/svg"><style>
    svg {
        font-family: "Iosevka Term Slab", monospace;
        font-size: 22px;
        font-kerning: normal;
        font-weight: bold;
        text-rendering: optimizeLegibility;
        fill: #24292e;
    }

    rect {
        fill: #f6f8fa;
        stroke: #333;
    }

    .combo {
        font-size: 20px;
    }

    .key {
        stroke: #333;
    }

    .pressed {
        fill: #555;
    }

    .pressed-text {
        fill: #faa;
    }

    .disabled {
        fill: #f6f8fa;
        stroke: #ccc;
        border-color: red;
    }

    .deactivated {
        fill: #f000;
        stroke: #f000;
    }

    .sticky {
        fill: #ccc;
    }
</style><rect rx="2" ry="2" x="2" y="2" width="48" height="48" class="deactivated key" /><rect rx="2" ry="2" x="60" y="2" width="48" height="48" class=" key" /><text text-anchor="middle" dominant-baseline="middle" x="84.0" y="28.36363636363636" class="-text">;</text><rect rx="2" ry="2" x="118" y="2" width="48" height="48" class=" key" /><text text-anchor="middle" dominant-baseline="middle" x="142.0" y="28.36363636363636" class="-text">:</text><rect rx="2" ry="2" x="176" y="2" width="48" height="48" class=" key" /><text text-anchor="middle" dominant-baseline="middle" x="200.0" y="28.36363636363636" class="-text">q</text><rect rx="2" ry="2" x="234" y="2" width="48" height="48" class=" key" /><text text-anchor="middle" dominant-baseline="middle" x="258.0" y="28.36363636363636" class="-text">ö</text><rect rx="2" ry="2" x="292" y="2" width="48" height="48" class="deactivated key" /><rect rx="2" ry="2" x="350" y="2" width="48" height="48" class=" key" /><text text-anchor="middle" dominant-baseline="middle" x="374.0" y="20.18181818181818" class="-text">page</text><text text-anchor="middle" dominant-baseline="middle" x="374.0" y="38.18181818181818" class="-text">up</text><rect rx="2" ry="2" x="408" y="2" width="48" height="48" class=" key" /><text text-anchor="middle" dominant-baseline="middle" x="432.0" y="28.36363636363636" class="-text">home</text><rect rx="2" ry="2" x="466" y="2" width="48" height="48" class=" key" /><text text-anchor="middle" dominant-baseline="middle" x="490.0" y="28.36363636363636" class="-text">↑</text><rect rx="2" ry="2" x="524" y="2" width="48" height="48" class=" key" /><text text-anchor="middle" dominant-baseline="middle" x="548.0" y="28.36363636363636" class="-text">end</text><rect rx="2" ry="2" x="582" y="2" width="48" height="48" class="deactivated key" /><rect rx="2" ry="2" x="2" y="60" width="48" height="48" class="sticky key" /><text text-anchor="middle" dominant-baseline="middle" x="26.0" y="86.36363636363636" class="sticky-text">SHFT</text><rect rx="2" ry="2" x="60" y="60" width="48" height="48" class="sticky key" /><text text-anchor="middle" dominant-baseline="middle" x="84.0" y="86.36363636363636" class="sticky-text">CTRL</text><rect rx="2" ry="2" x="118" y="60" width="48" height="48" class="sticky key" /><text text-anchor="middle" dominant-baseline="middle" x="142.0" y="86.36363636363636" class="sticky-text">ALT</text><rect rx="2" ry="2" x="176" y="60" width="48" height="48" class="sticky key" /><text text-anchor="middle" dominant-baseline="middle" x="200.0" y="86.36363636363636" class="sticky-text">MOD</text><rect rx="2" ry="2" x="234" y="60" width="48" height="48" class=" key" /><text text-anchor="middle" dominant-baseline="middle" x="258.0" y="86.36363636363636" class="-text">ä</text><rect rx="2" ry="2" x="292" y="60" width="48" height="48" class="deactivated key" /><rect rx="2" ry="2" x="350" y="60" width="48" height="48" class=" key" /><text text-anchor="middle" dominant-baseline="middle" x="374.0" y="78.18181818181819" class="-text">page</text><text text-anchor="middle" dominant-baseline="middle" x="374.0" y="96.18181818181819" class="-text">down</text><rect rx="2" ry="2" x="408" y="60" width="48" height="48" class=" key" /><text text-anchor="middle" dominant-baseline="middle" x="432.0" y="86.36363636363636" class="-text">←</text><rect rx="2" ry="2" x="466" y="60" width="48" height="48" class=" key" /><text text-anchor="middle" dominant-baseline="middle" x="490.0" y="86.36363636363636" class="-text">↓</text><rect rx="2" ry="2" x="524" y="60" width="48" height="48" class=" key" /><text text-anchor="middle" dominant-baseline="middle" x="548.0" y="86.36363636363636" class="-text">→</text><rect rx="2" ry="2" x="582" y="60" width="48" height="48" class="disabled key" /><rect rx="2" ry="2" x="2" y="118" width="48" height="48" class="sticky key" /><text text-anchor="middle" dominant-baseline="middle" x="26.0" y="136.1818181818182" class="sticky-text">ALT</text><text text-anchor="middle" dominant-baseline="middle" x="26.0" y="154.1818181818182" class="sticky-text">GR</text><rect rx="2" ry="2" x="60" y="118" width="48" height="48" class="disabled key" /><rect rx="2" ry="2" x="118" y="118" width="48" height="48" class="disabled key" /><rect rx="2" ry="2" x="176" y="118" width="48" height="48" class=" key" /><text text-anchor="middle" dominant-baseline="middle" x="200.0" y="144.36363636363637" class="-text">ESC</text><rect rx="2" ry="2" x="234" y="118" width="48" height="48" class=" key" /><text text-anchor="middle" dominant-baseline="middle" x="258.0" y="144.36363636363637" class="-text">ü</text><rect rx="2" ry="2" x="292" y="118" width="48" height="48" class="deactivated key" /><rect rx="2" ry="2" x="350" y="118" width="48" height="48" class=" key" /><text text-anchor="middle" dominant-baseline="middle" x="374.0" y="144.36363636363637" class="-text">DEL</text><rect rx="2" ry="2" x="408" y="118" width="48" height="48" class=" key" /><text text-anchor="middle" dominant-baseline="middle" x="432.0" y="144.36363636363637" class="-text">INS</text><rect rx="2" ry="2" x="466" y="118" width="48" height="48" class=" key" /><text text-anchor="middle" dominant-baseline="middle" x="490.0" y="144.36363636363637" class="-text">TAB</text><rect rx="2" ry="2" x="524" y="118" width="48" height="48" class=" key" /><text text-anchor="middle" dominant-baseline="middle" x="548.0" y="144.36363636363637" class="-text">C-g</text><rect rx="2" ry="2" x="582" y="118" width="48" height="48" class="disabled key" /><rect rx="2" ry="2" x="2" y="176" width="48" height="48" class="deactivated key" /><rect rx="2" ry="2" x="60" y="176" width="48" height="48" class="deactivated key" /><rect rx="2" ry="2" x="118" y="176" width="48" height="48" class="deactivated key" /><rect rx="2" ry="2" x="176" y="176" width="48" height="48" class="disabled key" /><rect rx="2" ry="2" x="234" y="176" width="48" height="48" class="disabled key" /><rect rx="2" ry="2" x="292" y="176" width="48" height="48" class="deactivated key" /><rect rx="2" ry="2" x="350" y="176" width="48" height="48" class=" key" /><text text-anchor="middle" dominant-baseline="middle" x="374.0" y="194.1818181818182" class="-text">vol</text><text text-anchor="middle" dominant-baseline="middle" x="374.0" y="212.1818181818182" class="-text">up</text><rect rx="2" ry="2" x="408" y="176" width="48" height="48" class="disabled key" /><rect rx="2" ry="2" x="466" y="176" width="48" height="48" class="deactivated key" /><rect rx="2" ry="2" x="524" y="176" width="48" height="48" class="deactivated key" /><rect rx="2" ry="2" x="582" y="176" width="48" height="48" class="deactivated key" /><rect rx="2" ry="2" x="2" y="234" width="48" height="48" class="deactivated key" /><rect rx="2" ry="2" x="60" y="234" width="48" height="48" class="deactivated key" /><rect rx="2" ry="2" x="118" y="234" width="48" height="106" class="pressed key" /><text text-anchor="middle" dominant-baseline="middle" x="142.0" y="286.72727272727275" class="pressed-text">NAV</text><rect rx="2" ry="2" x="176" y="234" width="48" height="106" class="disabled key" /><rect rx="2" ry="2" x="234" y="234" width="48" height="48" class="disabled key" /><rect rx="2" ry="2" x="292" y="234" width="48" height="48" class="deactivated key" /><rect rx="2" ry="2" x="350" y="234" width="48" height="48" class=" key" /><text text-anchor="middle" dominant-baseline="middle" x="374.0" y="252.1818181818182" class="-text">vol</text><text text-anchor="middle" dominant-baseline="middle" x="374.0" y="270.1818181818182" class="-text">down</text><rect rx="2" ry="2" x="408" y="234" width="48" height="106" class="key key" /><text text-anchor="middle" dominant-baseline="middle" x="432.0" y="286.72727272727275" class="key-text">RET</text><rect rx="2" ry="2" x="466" y="234" width="48" height="106" class="key key" /><text text-anchor="middle" dominant-baseline="middle" x="490.0" y="286.72727272727275" class="key-text">SYM</text><rect rx="2" ry="2" x="524" y="234" width="48" height="48" class="deactivated key" /><rect rx="2" ry="2" x="582" y="234" width="48" height="48" class="deactivated key" /><rect rx="2" ry="2" x="2" y="292" width="48" height="48" class="deactivated key" /><rect rx="2" ry="2" x="60" y="292" width="48" height="48" class="deactivated key" /><rect rx="2" ry="2" x="118" y="292" width="48" height="48" class="deactivated key" /><rect rx="2" ry="2" x="176" y="292" width="48" height="48" class="deactivated key" /><rect rx="2" ry="2" x="234" y="292" width="48" height="48" class="disabled key" /><rect rx="2" ry="2" x="292" y="292" width="48" height="48" class="deactivated key" /><rect rx="2" ry="2" x="350" y="292" width="48" height="48" class="disabled key" /><rect rx="2" ry="2" x="408" y="292" width="48" height="48" class="deactivated key" /><rect rx="2" ry="2" x="466" y="292" width="48" height="48" class="deactivated key" /><rect rx="2" ry="2" x="524" y="292" width="48" height="48" class="deactivated key" /><rect rx="2" ry="2" x="582" y="292" width="48" height="48" class="deactivated key" /></svg>